#!OML:ASF F:\VICON\USERDATA\INSTALL\rory3\rory3.ASF
:FULLY-SPECIFIED
:DEGREES
257
root 1.37437 16.791 1.8955 -7.86113 8.76947 6.4201
lowerback 18.0932 0.559218 -9.7315
upperback 1.56811 -1.38316 -1.96862
thorax -8.28572 -0.351751 3.72139
lowerneck -7.46968 -3.48209 -7.75032
upperneck 1.43596 -4.31727 9.96797
head 2.03644 -1.94865 4.08953
rclavicle 6.32384e-015 -2.22639e-014
rhumerus -37.9961 21.602 -77.6137
rradius 44.6373
rwrist 4.0521
rhand -34.6104 0.164663
rfingers 7.12502
rthumb -7.76876 -29.6726
lclavicle 6.32384e-015 -2.22639e-014
lhumerus -18.4996 -9.44432 55.0499
lradius 78.5084
lwrist 8.9253
lhand -30.5535 15.9477
lfingers 7.12502
lthumb -3.85196 45.8927
rfemur -17.9067 3.01017 11.9035
rtibia 65.495
rfoot -32.6978 -9.10806
rtoes -9.515
lfemur -13.7253 3.09634 -26.4383
ltibia 57.0345
lfoot -29.7241 -3.46513
ltoes 6.47121
258
root 1.37742 16.5871 1.87749 -7.47696 8.97367 4.60437
lowerback 17.7335 0.11743 -7.89084
upperback 1.55546 -1.51367 -1.43862
thorax -8.11191 -0.477292 3.28807
lowerneck -7.31746 -3.50907 -8.08368
upperneck 0.864568 -4.29408 9.92884
head 1.84659 -1.94916 4.13862
rclavicle -4.48011e-014 5.1684e-015
rhumerus -35.503 19.6986 -76.8813
rradius 41.4357
rwrist 7.06631
rhand -34.1111 0.218804
rfingers 7.12502
rthumb -7.28683 -29.6357
lclavicle -4.48011e-014 5.1684e-015
lhumerus -18.1698 -6.65573 56.1713
lradius 77.4994
lwrist 8.10406
lhand -31.0255 16.0716
lfingers 7.12502
lthumb -4.30776 46.0077
rfemur -18.5732 2.46096 14.2773
rtibia 66.2672
rfoot -37.0928 -10.7928
rtoes -6.76604
lfemur -17.4779 2.89853 -24.5992
ltibia 61.7744
lfoot -30.6274 -1.09163
ltoes -0.742769
259
root 1.36703 16.3532 1.85301 -7.10143 8.82275 1.94697
lowerback 17.087 -0.277129 -5.25782
upperback 1.55882 -1.40883 -0.671465
thorax -7.80225 -0.514746 2.59163
lowerneck -7.2248 -3.5412 -8.23457
upperneck 0.404288 -4.29038 9.61871
head 1.68984 -1.96069 4.07271
rclavicle -2.30093e-014 8.94531e-015
rhumerus -33.422 16.6078 -75.964
rradius 38.4734
rwrist 10.5713
rhand -33.4113 0.024001
rfingers 7.12502
rthumb -6.61127 -29.8528
lclavicle -2.30093e-014 8.94531e-015
lhumerus -17.9162 -3.76868 57.5734
lradius 76.0146
lwrist 7.64714
lhand -31.2484 16.3796
lfingers 7.12502
lthumb -4.52304 46.3113
rfemur -19.7306 2.45404 17.6781
rtibia 67.2363
rfoot -37.5885 -13.91
rtoes -13.2079
lfemur -21.3343 3.3803 -21.5835
ltibia 66.5704
lfoot -31.4123 -0.453149
ltoes -5.84601
260
root 1.35435 16.1494 1.8331 -7.01613 8.49383 -0.0216224
lowerback 16.7653 -0.419381 -3.31611
upperback 1.67387 -1.16657 -0.0960982
thorax -7.54448 -0.459265 2.04604
lowerneck -7.40541 -3.59018 -8.26803
upperneck 0.270505 -4.32034 9.24501
head 1.67246 -1.98012 3.96092
rclavicle -4.55962e-015 1.31198e-014
rhumerus -31.8922 12.6418 -75.0125
rradius 35.8962
rwrist 13.6016
rhand -32.7709 -0.676764
rfingers 7.12502
rthumb -5.99303 -30.572
lclavicle -4.55962e-015 1.31198e-014
lhumerus -17.8405 -1.18142 59.0876
lradius 74.4832
lwrist 8.0721
lhand -31.7346 17.1936
lfingers 7.12502
lthumb -4.99246 47.1148
rfemur -21.0215 3.08835 20.0246
rtibia 68.9608
rfoot -38.5423 -13.5008
rtoes -11.417
lfemur -23.9199 4.19212 -19.2953
ltibia 70.5911
lfoot -32.2987 -1.32879
ltoes -5.48237
261
root 1.3546 16.0074 1.81719 -7.31701 8.04125 -0.991996
lowerback 16.9233 -0.37655 -2.24849
upperback 1.98458 -0.885896 0.224344
thorax -7.32302 -0.357466 1.71894
lowerneck -7.80452 -3.64174 -8.21312
upperneck 0.114262 -4.3402 8.3864
head 1.85719 -2.01074 4.09168
rclavicle -1.05604e-015 -1.25234e-014
rhumerus -30.6612 8.57051 -74.0731
rradius 33.7349
rwrist 15.016
rhand -32.6187 -1.06763
rfingers 7.12502
rthumb -5.84609 -30.967
lclavicle -1.05604e-015 -1.25234e-014
lhumerus -18.0869 1.07465 60.6383
lradius 73.3448
lwrist 9.65668
lhand -32.6417 18.1572
lfingers 7.12502
lthumb -5.86831 48.056
rfemur -22.158 3.59222 21.0931
rtibia 71.3013
rfoot -39.365 -12.4703
rtoes -8.54351
lfemur -25.1134 5.04866 -18.2123
ltibia 73.5112
lfoot -32.9356 -1.93165
ltoes -5.20093
262
root 1.36925 15.8735 1.78843 -7.92435 7.46469 -1.40661
lowerback 17.6664 -0.313089 -1.60352
upperback 2.38367 -0.676561 0.40257
thorax -7.31429 -0.274295 1.50196
lowerneck -8.28819 -3.58974 -8.06213
upperneck -0.0297562 -4.22396 7.80488
head 1.86112 -1.95463 3.8552
rclavicle -7.8023e-015 -9.93923e-015
rhumerus -29.558 5.28161 -73.4109
rradius 32.0671
rwrist 14.252
rhand -32.3758 -1.8466
rfingers 7.12502
rthumb -5.61162 -31.7523
lclavicle -7.8023e-015 -9.93923e-015
lhumerus -18.6448 3.17756 62.0364
lradius 72.508
lwrist 11.8289
lhand -32.8449 18.4867
lfingers 7.12502
lthumb -6.06449 48.3799
rfemur -22.9413 3.74042 21.4997
rtibia 73.2186
rfoot -38.9795 -13.1446
rtoes -11.911
lfemur -25.5959 5.86838 -17.77
ltibia 75.7181
lfoot -33.4786 -1.2636
ltoes -7.27592
263
root 1.38214 15.7547 1.74975 -8.57145 6.82628 -1.28066
lowerback 18.7458 -0.192262 -1.54459
upperback 2.76232 -0.51666 0.430392
thorax -7.4981 -0.197981 1.46988
lowerneck -8.57826 -3.41799 -7.88526
upperneck -0.478872 -3.95687 7.34128
head 1.71961 -1.82427 3.66615
rclavicle 1.14798e-014 -1.39149e-014
rhumerus -28.6574 3.11275 -73.2427
rradius 30.9355
rwrist 11.3339
rhand -31.8883 -3.31961
rfingers 7.12502
rthumb -5.14085 -33.2372
lclavicle 1.14798e-014 -1.39149e-014
lhumerus -19.3145 4.96345 63.1865
lradius 71.8254
lwrist 14.0061
lhand -31.971 18.8942
lfingers 7.12502
lthumb -5.22071 48.8099
rfemur -23.6271 3.53741 21.3166
rtibia 75.1721
rfoot -38.5889 -13.297
rtoes -13.6007
lfemur -25.6595 6.65503 -17.8744
ltibia 77.274
lfoot -33.8787 -0.826488
ltoes -7.77348
264
root 1.38576 15.6562 1.71439 -9.07707 6.33657 -0.497368
lowerback 19.6788 0.0283903 -2.30401
upperback 3.16891 -0.407464 0.29743
thorax -7.55942 -0.128798 1.73869
lowerneck -8.83512 -3.25859 -7.72703
upperneck -1.10016 -3.70954 7.0887
head 1.5267 -1.69939 3.55522
rclavicle -7.91411e-015 1.6201e-014
rhumerus -27.8846 1.75449 -73.4193
rradius 30.2611
rwrist 7.41597
rhand -32.2581 -4.30213
rfingers 7.12502
rthumb -5.49793 -34.2108
lclavicle -7.91411e-015 1.6201e-014
lhumerus -19.913 6.29653 64.2257
lradius 71.1364
lwrist 15.9623
lhand -31.3706 19.3401
lfingers 7.12502
lthumb -4.64101 49.2693
rfemur -24.337 3.04689 20.396
rtibia 77.1051
rfoot -38.221 -12.7124
rtoes -12.5395
lfemur -25.621 7.22526 -18.6493
ltibia 78.3876
lfoot -34.0475 -1.11374
ltoes -7.29984
265
root 1.39136 15.5696 1.69064 -9.46759 6.18729 0.933299
lowerback 20.3885 0.273763 -3.70674
upperback 3.59028 -0.426987 -0.0412186
thorax -7.47001 -0.112911 2.18163
lowerneck -9.13218 -3.12865 -7.53287
upperneck -1.67841 -3.51078 7.02198
head 1.3658 -1.59486 3.50065
rclavicle -5.30507e-015 4.67144e-015
rhumerus -27.2823 0.956293 -73.7848
rradius 30.0436
rwrist 3.68442
rhand -33.0443 -4.57811
rfingers 7.12502
rthumb -6.25694 -34.4657
lclavicle -5.30507e-015 4.67144e-015
lhumerus -20.4268 7.10541 65.1905
lradius 70.3409
lwrist 17.4213
lhand -31.2708 19.4762
lfingers 7.12502
lthumb -4.54462 49.4075
rfemur -24.9254 2.10714 18.609
rtibia 79.1256
rfoot -38.0283 -11.7975
rtoes -12.0633
lfemur -25.521 7.38299 -20.2121
ltibia 79.2123
lfoot -34.056 -0.921813
ltoes -8.45383
266
root 1.39996 15.5043 1.67685 -9.69221 6.30994 2.36651
lowerback 20.9294 0.45378 -5.01431
upperback 3.8688 -0.526124 -0.425659
thorax -7.43596 -0.138555 2.5398
lowerneck -9.2536 -3.0396 -7.32764
upperneck -2.15639 -3.38554 7.01053
head 1.21463 -1.52999 3.46118
rclavicle 1.00138e-014 -4.07509e-015
rhumerus -27.0829 0.653068 -74.2687
rradius 30.245
rwrist 0.642917
rhand -32.8897 -4.9289
rfingers 7.12502
rthumb -6.10768 -34.8209
lclavicle 1.00138e-014 -4.07509e-015
lhumerus -20.8912 7.30076 66.0829
lradius 69.3173
lwrist 18.1287
lhand -31.7664 19.67
lfingers 7.12502
lthumb -5.02321 49.5905
rfemur -25.6599 1.16737 16.6449
rtibia 80.6654
rfoot -37.6064 -10.8634
rtoes -12.6043
lfemur -25.4866 7.18024 -21.8433
ltibia 79.8309
lfoot -33.9416 -0.248903
ltoes -10.3319
267
root 1.40562 15.4512 1.67071 -9.74146 6.55415 3.42774
lowerback 21.3436 0.554834 -5.93394
upperback 3.98875 -0.643411 -0.710615
thorax -7.50501 -0.176558 2.78847
lowerneck -9.14268 -3.02118 -7.3049
upperneck -2.67026 -3.35195 7.1707
head 1.02772 -1.51164 3.51452
rclavicle -1.98785e-015 1.15295e-014
rhumerus -27.3773 0.928031 -74.8082
rradius 30.9843
rwrist -1.48722
rhand -32.0986 -5.708
rfingers 7.12502
rthumb -5.34388 -35.6206
lclavicle -1.98785e-015 1.15295e-014
lhumerus -21.3071 7.07102 66.9404
lradius 67.9985
lwrist 17.8194
lhand -31.7117 19.705
lfingers 7.12502
lthumb -4.97038 49.6267
rfemur -26.2873 0.138399 15.1267
rtibia 81.8675
rfoot -37.4794 -10.1069
rtoes -12.7997
lfemur -25.6699 6.78514 -23.081
ltibia 80.3808
lfoot -33.7028 0.173858
ltoes -11.5342
268
root 1.40711 15.4166 1.67089 -9.67097 6.55078 3.5041
lowerback 21.5425 0.557211 -5.94794
upperback 4.00294 -0.65874 -0.730064
thorax -7.59339 -0.181233 2.78134
lowerneck -8.9292 -3.03364 -7.22538
upperneck -3.13958 -3.37194 7.3142
head 0.840117 -1.5234 3.54987
rclavicle -1.96548e-014 -4.77083e-015
rhumerus -27.8977 1.56484 -75.4256
rradius 32.0307
rwrist -2.6432
rhand -31.2653 -5.57051
rfingers 7.12502
rthumb -4.53934 -35.5019
lclavicle -1.96548e-014 -4.77083e-015
lhumerus -21.7318 6.59126 67.7217
lradius 66.4748
lwrist 16.5992
lhand -30.5979 19.4416
lfingers 7.12502
lthumb -3.89489 49.3858
rfemur -26.8862 -0.589262 14.9066
rtibia 82.6262
rfoot -37.2944 -9.72141
rtoes -12.0535
lfemur -26.1271 6.5949 -23.1137
ltibia 80.9717
lfoot -33.4163 -0.182371
ltoes -12.2009
269
root 1.411 15.396 1.67654 -9.50913 6.34479 2.85451
lowerback 21.4553 0.466577 -5.23924
upperback 3.99375 -0.599323 -0.575743
thorax -7.57081 -0.168122 2.5288
lowerneck -8.76493 -3.03582 -7.04567
upperneck -3.45816 -3.38889 7.40469
head 0.706839 -1.53529 3.54746
rclavicle -1.43995e-014 1.03368e-014
rhumerus -28.4932 2.52472 -76.1385
rradius 33.243
rwrist -3.18545
rhand -30.5415 -4.15686
rfingers 7.12502
rthumb -3.84038 -34.102
lclavicle -1.43995e-014 1.03368e-014
lhumerus -22.1813 5.92116 68.4365
lradius 64.9243
lwrist 14.8188
lhand -30.0166 18.9222
lfingers 7.12502
lthumb -3.33346 48.8759
rfemur -27.4194 -0.975899 15.6353
rtibia 83.0172
rfoot -37.083 -9.69394
rtoes -11.9897
lfemur -26.7159 6.59134 -22.2794
ltibia 81.5835
lfoot -33.2376 -0.540388
ltoes -13.1662
270
root 1.4199 15.3888 1.68722 -9.29546 6.10857 2.21665
lowerback 21.1836 0.365158 -4.43522
upperback 4.01133 -0.528188 -0.475535
thorax -7.4223 -0.155256 2.15766
lowerneck -8.81172 -3.06153 -6.88286
upperneck -3.56847 -3.43098 7.56339
head 0.683013 -1.5554 3.56942
rclavicle -1.54679e-014 2.98177e-015
rhumerus -29.1001 3.46938 -76.9199
rradius 34.4433
rwrist -2.82366
rhand -29.8286 -3.01418
rfingers 7.12502
rthumb -3.15197 -32.9706
lclavicle -1.54679e-014 2.98177e-015
lhumerus -22.5341 5.15415 69.0961
lradius 63.2895
lwrist 12.7334
lhand -29.7287 18.2147
lfingers 7.12502
lthumb -3.05541 48.1725
rfemur -27.7631 -1.14767 16.3521
rtibia 83.0989
rfoot -36.9797 -9.61018
rtoes -12.4008
lfemur -27.1949 6.63535 -21.4953
ltibia 82.0929
lfoot -33.1965 -0.639564
ltoes -13.7238
271
root 1.43061 15.383 1.69897 -9.02906 5.87035 1.62687
lowerback 20.8693 0.276606 -3.65682
upperback 3.96143 -0.451791 -0.378433
thorax -7.32291 -0.136344 1.79647
lowerneck -8.85891 -3.11192 -6.87696
upperneck -3.49356 -3.5005 7.84984
head 0.7292 -1.58595 3.66541
rclavicle 1.04113e-014 5.96354e-015
rhumerus -29.8726 4.42998 -77.6705
rradius 35.6015
rwrist -1.57935
rhand -29.1953 -2.82048
rfingers 7.12502
rthumb -2.54037 -32.7851
lclavicle 1.04113e-014 5.96354e-015
lhumerus -23.0195 4.34874 69.7491
lradius 61.6387
lwrist 10.3453
lhand -28.9874 17.4515
lfingers 7.12502
lthumb -2.3395 47.4184
rfemur -28.0134 -1.20422 17.0054
rtibia 82.9775
rfoot -36.8878 -9.68015
rtoes -12.9926
lfemur -27.6985 6.64774 -20.8266
ltibia 82.5443
lfoot -33.2164 -0.554186
ltoes -14.2177
